{"title":"Wiz Khalifa - Black and Yellow [KingPinVideos]","uid":5878814,"size":79398512,"categoryP":"video","categoryS":"music_videos","magnet":"?xt=urn:btih:e0dbd5880f9d20704ef970471e7f5bfb67253392&amp;dn=Wiz+Khalifa+-+Black+and+Yellow+%5BKingPinVideos%5D&amp;tr=udp%3A%2F%2Ftracker.openbittorrent.com%3A80&amp;tr=udp%3A%2F%2Fopen.demonii.com%3A1337&amp;tr=udp%3A%2F%2Ftracker.coppersurfer.tk%3A6969&amp;tr=udp%3A%2F%2Fexodus.desync.com%3A6969","seeders":4,"leechers":0,"uploader":"KingPinMan","files":5,"time":1286757496,"description":"[img]http://img145.imageshack.us/img145/3435/wizblack.png[/img]\n\n[img]http://img828.imageshack.us/img828/6628/wizblack2.png[/img]\n\n[code]General\nComplete name                    : Wiz Khalifa - Black and Yellow [KingPinVideos].mpg\nFormat                           : MPEG-PS\nFile size                        : 75.7 MiB\nDuration                         : 3mn 42s\nOverall bit rate                 : 2 856 Kbps\nWriting library                  : encoded by TMPGEnc 4.0 XPress Version. 4.7.4.299\n\nVideo\nID                               : 224 (0xE0)\nFormat                           : MPEG Video\nFormat version                   : Version 1\nFormat settings, BVOP            : Yes\nFormat settings, Matrix          : Default\nDuration                         : 3mn 42s\nBit rate mode                    : Constant\nBit rate                         : 2 614 Kbps\nNominal bit rate                 : 2 700 Kbps\nWidth                            : 384 pixels\nHeight                           : 208 pixels\nDisplay aspect ratio             : 16:9\nFrame rate                       : 29.970 fps\nResolution                       : 8 bits\nScan type                        : Progressive\nBits/(Pixel*Frame)               : 1.092\nStream size                      : 69.3 MiB (92%)\nWriting library                  : TMPGEnc XPress 4.7.4.299\n\nAudio\nID                               : 192 (0xC0)\nFormat                           : MPEG Audio\nFormat version                   : Version 1\nFormat profile                   : Layer 2\nDuration                         : 3mn 42s\nBit rate mode                    : Constant\nBit rate                         : 128 Kbps\nChannel(s)                       : 2 channels\nSampling rate                    : 48.0 KHz\nStream size                      : 3.39 MiB (4%)[/code]","torrent":{"xt":"urn:btih:e0dbd5880f9d20704ef970471e7f5bfb67253392","amp;dn":"Wiz+Khalifa+-+Black+and+Yellow+%5BKingPinVideos%5D","amp;tr":["udp%3A%2F%2Ftracker.openbittorrent.com%3A80","udp%3A%2F%2Fopen.demonii.com%3A1337","udp%3A%2F%2Ftracker.coppersurfer.tk%3A6969","udp%3A%2F%2Fexodus.desync.com%3A6969"],"infoHash":"e0dbd5880f9d20704ef970471e7f5bfb67253392","infoHashBuffer":{"type":"Buffer","data":[224,219,213,136,15,157,32,112,78,249,112,71,30,127,91,251,103,37,51,146]},"announce":[],"urlList":[]}}